# xmcd CD database file
#
# Track frame offsets:
#	150
#	13088
#	21988
#	32928
#	43018
#	52113
#	60048
#	67368
#	78295
#	88988
#	97023
#	105960
#
# Disc length: 1523 seconds
#
# Revision: 0
# Processed by: cddbd v1.4PL0 Copyright (c) Steve Scherf et al.
# Submitted via: CDex 1.50beta10
#
DISCID=9e05f10c
DTITLE=João Gilberto - Interpreta Tom Jobim
DYEAR=1900
DGENRE=Jazz
TTITLE0=A Felicidade
TTITLE1=Desafinado
TTITLE2=Insensatez
TTITLE3=Este seu Olhar
TTITLE4=Chega de Saudade
TTITLE5=Meditação
TTITLE6=Sanba de Uma Nota Só
TTITLE7=O Nosso Amor
TTITLE8=O Amor em Paz
TTITLE9=Só em teus Braços
TTITLE10=Corcovado
TTITLE11=Discussão
EXTD=
EXTT0=
EXTT1=
EXTT2=
EXTT3=
EXTT4=
EXTT5=
EXTT6=
EXTT7=
EXTT8=
EXTT9=
EXTT10=
EXTT11=
PLAYORDER=
